<?xml version="1.0" standalone="no"?>
<!DOCTYPE svg PUBLIC "-//W3C//DTD SVG 20010904//EN"
 "http://www.w3.org/TR/2001/REC-SVG-20010904/DTD/svg10.dtd">
<svg version="1.0" xmlns="http://www.w3.org/2000/svg"
 width="80.000000pt" height="80.000000pt" viewBox="0 0 80.000000 80.000000"
 preserveAspectRatio="xMidYMid meet">

<g transform="translate(0.000000,80.000000) scale(0.100000,-0.100000)"
fill="#000000" stroke="none">
<path d="M110 781 c-11 -21 -14 -409 -4 -449 4 -15 16 -25 35 -29 l28 -5 4
-152 3 -151 2 151 2 152 29 5 c22 5 30 13 35 38 10 50 7 405 -4 433 -9 24 -15
26 -64 26 -44 0 -57 -4 -66 -19z"/>
<path d="M340 781 c-11 -21 -14 -409 -4 -449 4 -15 16 -25 35 -29 l28 -5 4
-152 3 -151 2 151 2 152 29 5 c22 5 30 13 35 38 10 50 7 405 -4 433 -9 24 -15
26 -64 26 -44 0 -57 -4 -66 -19z"/>
<path d="M570 781 c-11 -21 -14 -409 -4 -449 4 -15 16 -25 35 -29 l28 -5 4
-152 3 -151 2 151 2 152 29 5 c22 5 30 13 35 38 10 50 7 405 -4 433 -9 24 -15
26 -64 26 -44 0 -57 -4 -66 -19z"/>
</g>
</svg>
